<?xml version="1.0"?><svg version="1.2" baseProfile="tiny-ps" viewBox="0 0 300 300" xmlns="http://www.w3.org/2000/svg" xmlns:xlink="http://www.w3.org/1999/xlink"><title>Neutra Ltd</title><g><g fill="#fff" transform="matrix(.1 0 0 -.1 0 300)"><path d="M0 1500V0h3000v3000H0V1500z"/></g><g fill="#e1e1e1" transform="matrix(.1 0 0 -.1 0 300)"><path d="M0 1501v-221h69l3 149 3 149 182-149 183-149h30v420h-59l-3-151-3-152-190 155c-104 84-196 157-202 162l-13 7v-220zm2718 162c-43-71-191-330-207-360l-12-23h77l85 150c46 82 87 150 90 150s44-66 90-147l85-148 37-3c20-2 37 0 37 3 0 6-236 422-245 433-2 2-18-23-37-55zM560 1490v-210h390v60H630v120h240v60H630v120h320v60H560v-210zm480 44v-166l33-33 33-33 44-12 45-12 65 4 65 3 40 21 40 20 17 35 18 34v305h-70v-307l-17-16c-10-8-38-20-62-27l-43-11-42 6c-22 4-53 14-68 21l-28 15v319h-70v-166zm480 136v-30h170v-360h60v360h170v60h-400v-30zm480-180v-210h70v362l93-4 92-4 30-15 30-14 3-17 3-17-30-16-30-15-76-7-75-6v-57h78l68-95 69-95h43c23 0 42 1 42 3s-31 45-70 97l-70 93 49 23 49 22 11 21c6 11 11 34 11 51v32l-31 29-31 28-36 11-37 10h-255v-210z"/></g><g fill="#a5a5a5" transform="matrix(.1 0 0 -.1 0 300)"><path d="M0 1495v-215h59l3 155 3 155 190-155c104-85 195-155 202-155h13v420h-59l-3-153-3-153-194 158c-107 87-199 158-203 158H0v-215zm2653 52c-51-89-107-186-123-214l-30-53h75l79 143c44 78 84 148 89 155l10 12 89-155 90-155h70l-4 8c-10 27-242 422-247 422-3 0-48-73-98-163zm-2093-57v-210h390v60H630v120h230v60H630v120h320v60H560v-210zm482 39 3-171 34-28 34-29 49-12 50-12 58 6 57 5 32 16c18 10 41 26 52 37l19 19v340h-60v-319l-31-17-31-16-52-5-53-5-46 20-47 21v321h-71l3-171zm482 156c-4-8-4-22 0-30l5-15h161v-360h60v360h160v60h-381l-5-15zm486-194v-211h60v360h78c82 0 136-11 167-34l20-14-18-20-18-20-44-11c-24-6-64-11-89-11h-46v-60h69l70-95 71-95h82l-9 13c-5 6-39 51-76 99l-67 86 31 7 30 7 35 30 34 30v64l-20 22c-11 12-35 30-53 39l-32 18-137 3-138 4v-211z"/></g><g fill="#6a6a6a" transform="matrix(.1 0 0 -.1 0 300)"><path d="M10 1496v-216h49l3 156 3 156 192-156c105-86 196-156 202-156h11v420h-59l-3-154-3-155-160 131c-88 71-177 143-197 160l-38 30v-216zm2733 202c-16-21-233-405-233-412 0-4 14-6 31-4l32 3 86 152c47 84 88 153 91 153s46-70 95-155l89-155h67l-4 8c-18 32-240 418-242 420-1 1-7-3-12-10zm-2179-11c-2-7-3-100-2-207l3-195 193-3 192-2v60H620v120h240v60H620v120h330v60H569l-5-13zm486-157v-171l24-24 24-24 53-15c63-19 91-20 161-5l53 12 32 32 33 33v332h-60v-320l-25-16-26-17-67-4-67-4-35 18-35 18-5 160-5 160-27 3-28 3v-171zm480 140v-30h160v-360h60v360h160v60h-380v-30zm480-180v-210h60v362l103-4 103-3 27-18 27-17v-29l-32-17-33-17-72-5-73-5v-57h75l68-95 68-95h35c19 0 34 3 34 8 0 4-32 48-70 97l-69 90 48 21 48 22 17 23c9 13 16 34 16 47v24l-33 33-32 32-53 12-53 11h-209v-210z"/></g><g fill="#393939" transform="matrix(.1 0 0 -.1 0 300)"><path d="M10 1496v-216h50v155c0 85 2 155 5 155s91-70 196-155 195-155 200-155h9l-2 208-3 207-27 3-27 3-3-156-3-156-95 77c-52 43-141 115-197 162l-103 84v-216zm560-6v-210h380v60H620v120h240v60H620v120h330v60H570v-210zm480 41v-169l35-30 35-31 37-8c21-4 62-7 91-6l53 1 44 17 45 17 20 25 20 26v328l-27-3-28-3-5-160-5-160-35-17-35-18h-116l-32 16c-18 9-35 22-39 28l-8 11v305h-50v-169zm480 144v-25h160l2-182 3-183h50l3 183 2 182h160v50h-380v-25zm480-184v-211h50v360h195l35-18 35-17 3-17 3-17-26-17-27-17-79-5-79-5v-47h69l72-100 72-100h34c18 0 33 2 33 5s-31 47-70 98l-69 92 47 21c26 11 54 29 62 38l14 18v66l-14 17c-7 9-32 26-54 37l-41 21-132 5-133 5v-212zm618 4c-65-112-118-207-118-210s13-5 30-5h29l88 155c48 85 90 155 94 155s39-57 79-127c41-71 82-140 92-155l19-28h50l-3 13c-5 22-229 407-236 407-4 0-60-92-124-205z"/></g><g fill="#020202" transform="matrix(.1 0 0 -.1 0 300)"><path d="M10 1495v-205h49l3 154 3 153 188-153c104-85 193-154 198-154h9v400h-50v-150c0-82-2-150-5-150s-90 70-195 155-192 155-195 155-5-92-5-205zm2623 6c-62-109-113-202-113-206 0-3 12-5 27-3l27 3 82 144c45 78 86 147 91 151l8 9 89-155 88-154h60l-19 33c-10 17-64 110-118 205-55 94-102 172-105 172s-56-90-117-199zm-2063-11v-200h380v40l-162 2-163 3-3 68-3 67h241v39l-117 3-118 3-3 62-3 63 163 2 163 3 3 23 3 22H570v-200zm480 41v-158l20-26 20-25 45-18 45-17 78 5 79 5 37 23 37 23 10 24 9 24v299h-50v-299l-21-20-22-20-49-10-49-11-47 11c-26 5-57 17-69 25l-23 14v310h-50v-159zm480 139v-19l83-3 82-3 3-177 2-178h40l2 178 3 177 83 3 82 3v39h-380v-20zm480-180v-200h50v350h202l35-16 34-17-3-21-3-21-35-17-35-18h-135v-50h69l70-95 71-95h30c16 0 30 3 30 6s-29 44-65 90l-66 85 6 8c2 5 17 12 31 15 14 4 37 14 49 22l24 15 9 28 10 27-13 31-13 30-44 22-44 21h-264v-200z"/></g></g></svg>