<?xml version="1.0" encoding="UTF-8" standalone="no"?>
<svg xmlns="http://www.w3.org/2000/svg" version="1.2" baseProfile="tiny" viewBox="0.00 0.00 1773.00 1773.00">
<g stroke-width="2.00" fill="none" stroke-linecap="butt">
<path stroke="#808080" vector-effect="non-scaling-stroke" d="
  M 3.22 1014.82
  A 0.37 0.37 0.0 0 0 3.59 1015.19
  L 35.81 1015.19
  A 0.37 0.37 0.0 0 0 36.18 1014.82
  L 36.18 831.09
  A 0.37 0.37 0.0 0 1 36.78 830.80
  L 263.87 1015.41
  A 0.37 0.37 0.0 0 0 264.10 1015.49
  L 276.35 1015.49
  A 0.37 0.37 0.0 0 0 276.72 1015.12
  L 276.72 770.37
  A 0.37 0.37 0.0 0 0 276.35 770.00
  L 243.03 770.00
  A 0.37 0.37 0.0 0 0 242.66 770.37
  L 242.66 952.77
  A 0.37 0.37 0.0 0 1 242.06 953.06
  L 3.82 759.40
  A 0.37 0.37 0.0 0 0 3.22 759.69
  L 3.22 1014.82"
/>
<path stroke="#808080" vector-effect="non-scaling-stroke" d="
  M 1626.49 760.82
  A 0.52 0.52 0.0 0 0 1625.59 760.83
  L 1480.57 1014.26
  A 0.52 0.52 0.0 0 0 1481.02 1015.04
  L 1519.25 1015.04
  A 0.52 0.52 0.0 0 0 1519.70 1014.78
  L 1625.53 829.84
  A 0.52 0.52 0.0 0 1 1626.43 829.83
  L 1733.22 1014.79
  A 0.52 0.52 0.0 0 0 1733.67 1015.05
  L 1772.37 1015.05
  A 0.52 0.52 0.0 0 0 1772.82 1014.27
  L 1626.49 760.82"
/>
<path stroke="#808080" vector-effect="non-scaling-stroke" d="
  M 368.93 875.61
  A 0.56 0.56 0.0 0 1 368.37 875.05
  L 368.37 803.56
  A 0.56 0.56 0.0 0 1 368.93 803.00
  L 560.43 803.00
  A 0.56 0.56 0.0 0 0 560.99 802.44
  L 560.99 770.58
  A 0.56 0.56 0.0 0 0 560.43 770.02
  L 334.04 770.02
  A 0.56 0.56 0.0 0 0 333.48 770.58
  L 333.48 1014.44
  A 0.56 0.56 0.0 0 0 334.04 1015.00
  L 560.43 1015.00
  A 0.56 0.56 0.0 0 0 560.99 1014.44
  L 560.99 982.72
  A 0.56 0.56 0.0 0 0 560.43 982.16
  L 368.93 982.16
  A 0.56 0.56 0.0 0 1 368.37 981.60
  L 368.37 909.35
  A 0.56 0.56 0.0 0 1 368.93 908.79
  L 508.33 908.79
  A 0.56 0.56 0.0 0 0 508.89 908.23
  L 508.89 876.17
  A 0.56 0.56 0.0 0 0 508.33 875.61
  L 368.93 875.61"
/>
<path stroke="#808080" vector-effect="non-scaling-stroke" d="
  M 618.73 769.95
  A 0.62 0.62 0.0 0 0 618.11 770.57
  Q 618.10 838.36 618.09 940.12
  Q 618.09 952.44 618.32 954.38
  C 622.33 989.51 667.65 1007.28 697.25 1012.27
  Q 718.79 1015.90 741.99 1014.87
  C 765.54 1013.82 788.38 1008.89 809.31 997.87
  C 825.18 989.50 839.81 976.97 844.44 959.43
  Q 846.00 953.55 845.83 936.46
  Q 845.74 927.77 845.78 770.77
  A 0.83 0.83 0.0 0 0 844.95 769.94
  L 811.90 769.94
  A 0.61 0.61 0.0 0 0 811.29 770.55
  Q 811.25 854.57 811.29 944.43
  Q 811.30 950.86 810.18 953.46
  C 806.54 961.94 793.44 968.39 785.17 971.70
  C 748.07 986.58 705.08 986.27 669.43 967.12
  C 662.30 963.29 653.41 957.24 653.41 948.75
  Q 653.46 852.03 653.40 770.46
  A 0.51 0.51 0.0 0 0 652.89 769.95
  L 618.73 769.95"
/>
<path stroke="#808080" vector-effect="non-scaling-stroke" d="
  M 1016.42 1015.03
  Q 1027.47 1015.02 1032.18 1015.14
  A 0.64 0.63 0.7 0 0 1032.84 1014.51
  L 1032.84 801.64
  A 0.46 0.46 0.0 0 1 1033.30 801.18
  L 1129.57 801.18
  A 0.64 0.63 90.0 0 0 1130.20 800.54
  L 1130.20 770.57
  A 0.68 0.67 -0.3 0 0 1129.52 769.90
  Q 1125.14 769.95 1016.32 770.00
  Q 907.50 770.04 903.13 769.99
  A 0.68 0.67 0.3 0 0 902.44 770.66
  L 902.47 800.63
  A 0.64 0.63 90.0 0 0 903.10 801.27
  L 999.37 801.19
  A 0.46 0.46 0.0 0 1 999.83 801.65
  L 1000.00 1014.52
  A 0.64 0.63 -0.8 0 0 1000.65 1015.16
  Q 1005.37 1015.03 1016.42 1015.03"
/>
<path stroke="#808080" vector-effect="non-scaling-stroke" d="
  M 1422.73 1014.52
  L 1335.24 899.51
  A 0.54 0.54 0.0 0 1 1335.57 898.65
  C 1362.90 893.43 1400.94 879.04 1409.90 849.66
  C 1415.64 830.82 1409.60 813.89 1395.71 800.58
  C 1376.04 781.72 1349.06 773.62 1322.37 770.86
  Q 1313.56 769.94 1298.11 769.98
  Q 1254.02 770.07 1188.00 769.98
  A 0.77 0.76 -89.6 0 0 1187.23 770.75
  L 1187.23 1014.66
  A 0.49 0.48 90.0 0 0 1187.71 1015.15
  L 1221.02 1015.15
  A 0.37 0.36 90.0 0 0 1221.38 1014.78
  L 1221.38 803.79
  A 0.70 0.70 0.0 0 1 1222.07 803.09
  Q 1259.54 802.79 1303.24 803.10
  Q 1323.82 803.25 1343.17 809.57
  C 1353.46 812.93 1375.03 821.13 1376.81 833.47
  C 1378.70 846.65 1360.47 855.40 1350.59 859.08
  Q 1332.39 865.86 1312.14 868.17
  Q 1308.03 868.64 1304.82 868.65
  C 1298.71 868.68 1292.60 869.22 1286.51 869.08
  Q 1266.84 868.64 1252.48 868.69
  A 0.56 0.56 0.0 0 0 1251.92 869.25
  L 1251.92 901.57
  A 0.48 0.47 -90.0 0 0 1252.39 902.05
  L 1292.91 902.05
  A 2.46 2.43 -17.9 0 1 1294.89 903.05
  L 1377.17 1014.59
  A 1.41 1.40 -18.1 0 0 1378.30 1015.16
  L 1422.41 1015.16
  A 0.40 0.40 0.0 0 0 1422.73 1014.52"
/>
</g>
<path fill="#ffffff" d="
  M 1773.00 0.00
  L 1773.00 1773.00
  L 0.00 1773.00
  L 0.00 0.00
  L 1773.00 0.00
  Z
  M 3.22 1014.82
  A 0.37 0.37 0.0 0 0 3.59 1015.19
  L 35.81 1015.19
  A 0.37 0.37 0.0 0 0 36.18 1014.82
  L 36.18 831.09
  A 0.37 0.37 0.0 0 1 36.78 830.80
  L 263.87 1015.41
  A 0.37 0.37 0.0 0 0 264.10 1015.49
  L 276.35 1015.49
  A 0.37 0.37 0.0 0 0 276.72 1015.12
  L 276.72 770.37
  A 0.37 0.37 0.0 0 0 276.35 770.00
  L 243.03 770.00
  A 0.37 0.37 0.0 0 0 242.66 770.37
  L 242.66 952.77
  A 0.37 0.37 0.0 0 1 242.06 953.06
  L 3.82 759.40
  A 0.37 0.37 0.0 0 0 3.22 759.69
  L 3.22 1014.82
  Z
  M 1626.49 760.82
  A 0.52 0.52 0.0 0 0 1625.59 760.83
  L 1480.57 1014.26
  A 0.52 0.52 0.0 0 0 1481.02 1015.04
  L 1519.25 1015.04
  A 0.52 0.52 0.0 0 0 1519.70 1014.78
  L 1625.53 829.84
  A 0.52 0.52 0.0 0 1 1626.43 829.83
  L 1733.22 1014.79
  A 0.52 0.52 0.0 0 0 1733.67 1015.05
  L 1772.37 1015.05
  A 0.52 0.52 0.0 0 0 1772.82 1014.27
  L 1626.49 760.82
  Z
  M 368.93 875.61
  A 0.56 0.56 0.0 0 1 368.37 875.05
  L 368.37 803.56
  A 0.56 0.56 0.0 0 1 368.93 803.00
  L 560.43 803.00
  A 0.56 0.56 0.0 0 0 560.99 802.44
  L 560.99 770.58
  A 0.56 0.56 0.0 0 0 560.43 770.02
  L 334.04 770.02
  A 0.56 0.56 0.0 0 0 333.48 770.58
  L 333.48 1014.44
  A 0.56 0.56 0.0 0 0 334.04 1015.00
  L 560.43 1015.00
  A 0.56 0.56 0.0 0 0 560.99 1014.44
  L 560.99 982.72
  A 0.56 0.56 0.0 0 0 560.43 982.16
  L 368.93 982.16
  A 0.56 0.56 0.0 0 1 368.37 981.60
  L 368.37 909.35
  A 0.56 0.56 0.0 0 1 368.93 908.79
  L 508.33 908.79
  A 0.56 0.56 0.0 0 0 508.89 908.23
  L 508.89 876.17
  A 0.56 0.56 0.0 0 0 508.33 875.61
  L 368.93 875.61
  Z
  M 618.73 769.95
  A 0.62 0.62 0.0 0 0 618.11 770.57
  Q 618.10 838.36 618.09 940.12
  Q 618.09 952.44 618.32 954.38
  C 622.33 989.51 667.65 1007.28 697.25 1012.27
  Q 718.79 1015.90 741.99 1014.87
  C 765.54 1013.82 788.38 1008.89 809.31 997.87
  C 825.18 989.50 839.81 976.97 844.44 959.43
  Q 846.00 953.55 845.83 936.46
  Q 845.74 927.77 845.78 770.77
  A 0.83 0.83 0.0 0 0 844.95 769.94
  L 811.90 769.94
  A 0.61 0.61 0.0 0 0 811.29 770.55
  Q 811.25 854.57 811.29 944.43
  Q 811.30 950.86 810.18 953.46
  C 806.54 961.94 793.44 968.39 785.17 971.70
  C 748.07 986.58 705.08 986.27 669.43 967.12
  C 662.30 963.29 653.41 957.24 653.41 948.75
  Q 653.46 852.03 653.40 770.46
  A 0.51 0.51 0.0 0 0 652.89 769.95
  L 618.73 769.95
  Z
  M 1016.42 1015.03
  Q 1027.47 1015.02 1032.18 1015.14
  A 0.64 0.63 0.7 0 0 1032.84 1014.51
  L 1032.84 801.64
  A 0.46 0.46 0.0 0 1 1033.30 801.18
  L 1129.57 801.18
  A 0.64 0.63 90.0 0 0 1130.20 800.54
  L 1130.20 770.57
  A 0.68 0.67 -0.3 0 0 1129.52 769.90
  Q 1125.14 769.95 1016.32 770.00
  Q 907.50 770.04 903.13 769.99
  A 0.68 0.67 0.3 0 0 902.44 770.66
  L 902.47 800.63
  A 0.64 0.63 90.0 0 0 903.10 801.27
  L 999.37 801.19
  A 0.46 0.46 0.0 0 1 999.83 801.65
  L 1000.00 1014.52
  A 0.64 0.63 -0.8 0 0 1000.65 1015.16
  Q 1005.37 1015.03 1016.42 1015.03
  Z
  M 1422.73 1014.52
  L 1335.24 899.51
  A 0.54 0.54 0.0 0 1 1335.57 898.65
  C 1362.90 893.43 1400.94 879.04 1409.90 849.66
  C 1415.64 830.82 1409.60 813.89 1395.71 800.58
  C 1376.04 781.72 1349.06 773.62 1322.37 770.86
  Q 1313.56 769.94 1298.11 769.98
  Q 1254.02 770.07 1188.00 769.98
  A 0.77 0.76 -89.6 0 0 1187.23 770.75
  L 1187.23 1014.66
  A 0.49 0.48 90.0 0 0 1187.71 1015.15
  L 1221.02 1015.15
  A 0.37 0.36 90.0 0 0 1221.38 1014.78
  L 1221.38 803.79
  A 0.70 0.70 0.0 0 1 1222.07 803.09
  Q 1259.54 802.79 1303.24 803.10
  Q 1323.82 803.25 1343.17 809.57
  C 1353.46 812.93 1375.03 821.13 1376.81 833.47
  C 1378.70 846.65 1360.47 855.40 1350.59 859.08
  Q 1332.39 865.86 1312.14 868.17
  Q 1308.03 868.64 1304.82 868.65
  C 1298.71 868.68 1292.60 869.22 1286.51 869.08
  Q 1266.84 868.64 1252.48 868.69
  A 0.56 0.56 0.0 0 0 1251.92 869.25
  L 1251.92 901.57
  A 0.48 0.47 -90.0 0 0 1252.39 902.05
  L 1292.91 902.05
  A 2.46 2.43 -17.9 0 1 1294.89 903.05
  L 1377.17 1014.59
  A 1.41 1.40 -18.1 0 0 1378.30 1015.16
  L 1422.41 1015.16
  A 0.40 0.40 0.0 0 0 1422.73 1014.52
  Z"
/>
<path fill="#000000" d="
  M 3.22 1014.82
  L 3.22 759.69
  A 0.37 0.37 0.0 0 1 3.82 759.40
  L 242.06 953.06
  A 0.37 0.37 0.0 0 0 242.66 952.77
  L 242.66 770.37
  A 0.37 0.37 0.0 0 1 243.03 770.00
  L 276.35 770.00
  A 0.37 0.37 0.0 0 1 276.72 770.37
  L 276.72 1015.12
  A 0.37 0.37 0.0 0 1 276.35 1015.49
  L 264.10 1015.49
  A 0.37 0.37 0.0 0 1 263.87 1015.41
  L 36.78 830.80
  A 0.37 0.37 0.0 0 0 36.18 831.09
  L 36.18 1014.82
  A 0.37 0.37 0.0 0 1 35.81 1015.19
  L 3.59 1015.19
  A 0.37 0.37 0.0 0 1 3.22 1014.82
  Z"
/>
<path fill="#000000" d="
  M 1626.49 760.82
  L 1772.82 1014.27
  A 0.52 0.52 0.0 0 1 1772.37 1015.05
  L 1733.67 1015.05
  A 0.52 0.52 0.0 0 1 1733.22 1014.79
  L 1626.43 829.83
  A 0.52 0.52 0.0 0 0 1625.53 829.84
  L 1519.70 1014.78
  A 0.52 0.52 0.0 0 1 1519.25 1015.04
  L 1481.02 1015.04
  A 0.52 0.52 0.0 0 1 1480.57 1014.26
  L 1625.59 760.83
  A 0.52 0.52 0.0 0 1 1626.49 760.82
  Z"
/>
<path fill="#000000" d="
  M 368.93 875.61
  L 508.33 875.61
  A 0.56 0.56 0.0 0 1 508.89 876.17
  L 508.89 908.23
  A 0.56 0.56 0.0 0 1 508.33 908.79
  L 368.93 908.79
  A 0.56 0.56 0.0 0 0 368.37 909.35
  L 368.37 981.60
  A 0.56 0.56 0.0 0 0 368.93 982.16
  L 560.43 982.16
  A 0.56 0.56 0.0 0 1 560.99 982.72
  L 560.99 1014.44
  A 0.56 0.56 0.0 0 1 560.43 1015.00
  L 334.04 1015.00
  A 0.56 0.56 0.0 0 1 333.48 1014.44
  L 333.48 770.58
  A 0.56 0.56 0.0 0 1 334.04 770.02
  L 560.43 770.02
  A 0.56 0.56 0.0 0 1 560.99 770.58
  L 560.99 802.44
  A 0.56 0.56 0.0 0 1 560.43 803.00
  L 368.93 803.00
  A 0.56 0.56 0.0 0 0 368.37 803.56
  L 368.37 875.05
  A 0.56 0.56 0.0 0 0 368.93 875.61
  Z"
/>
<path fill="#000000" d="
  M 618.73 769.95
  L 652.89 769.95
  A 0.51 0.51 0.0 0 1 653.40 770.46
  Q 653.46 852.03 653.41 948.75
  C 653.41 957.24 662.30 963.29 669.43 967.12
  C 705.08 986.27 748.07 986.58 785.17 971.70
  C 793.44 968.39 806.54 961.94 810.18 953.46
  Q 811.30 950.86 811.29 944.43
  Q 811.25 854.57 811.29 770.55
  A 0.61 0.61 0.0 0 1 811.90 769.94
  L 844.95 769.94
  A 0.83 0.83 0.0 0 1 845.78 770.77
  Q 845.74 927.77 845.83 936.46
  Q 846.00 953.55 844.44 959.43
  C 839.81 976.97 825.18 989.50 809.31 997.87
  C 788.38 1008.89 765.54 1013.82 741.99 1014.87
  Q 718.79 1015.90 697.25 1012.27
  C 667.65 1007.28 622.33 989.51 618.32 954.38
  Q 618.09 952.44 618.09 940.12
  Q 618.10 838.36 618.11 770.57
  A 0.62 0.62 0.0 0 1 618.73 769.95
  Z"
/>
<path fill="#000000" d="
  M 1016.32 770.00
  Q 1125.14 769.95 1129.52 769.90
  A 0.68 0.67 -0.3 0 1 1130.20 770.57
  L 1130.20 800.54
  A 0.64 0.63 -90.0 0 1 1129.57 801.18
  L 1033.30 801.18
  A 0.46 0.46 0.0 0 0 1032.84 801.64
  L 1032.84 1014.51
  A 0.64 0.63 0.7 0 1 1032.18 1015.14
  Q 1027.47 1015.02 1016.42 1015.03
  Q 1005.37 1015.03 1000.65 1015.16
  A 0.64 0.63 -0.8 0 1 1000.00 1014.52
  L 999.83 801.65
  A 0.46 0.46 0.0 0 0 999.37 801.19
  L 903.10 801.27
  A 0.64 0.63 90.0 0 1 902.47 800.63
  L 902.44 770.66
  A 0.68 0.67 0.3 0 1 903.13 769.99
  Q 907.50 770.04 1016.32 770.00
  Z"
/>
<path fill="#000000" d="
  M 1422.73 1014.52
  A 0.40 0.40 0.0 0 1 1422.41 1015.16
  L 1378.30 1015.16
  A 1.41 1.40 -18.1 0 1 1377.17 1014.59
  L 1294.89 903.05
  A 2.46 2.43 -17.9 0 0 1292.91 902.05
  L 1252.39 902.05
  A 0.48 0.47 90.0 0 1 1251.92 901.57
  L 1251.92 869.25
  A 0.56 0.56 0.0 0 1 1252.48 868.69
  Q 1266.84 868.64 1286.51 869.08
  C 1292.60 869.22 1298.71 868.68 1304.82 868.65
  Q 1308.03 868.64 1312.14 868.17
  Q 1332.39 865.86 1350.59 859.08
  C 1360.47 855.40 1378.70 846.65 1376.81 833.47
  C 1375.03 821.13 1353.46 812.93 1343.17 809.57
  Q 1323.82 803.25 1303.24 803.10
  Q 1259.54 802.79 1222.07 803.09
  A 0.70 0.70 0.0 0 0 1221.38 803.79
  L 1221.38 1014.78
  A 0.37 0.36 -90.0 0 1 1221.02 1015.15
  L 1187.71 1015.15
  A 0.49 0.48 90.0 0 1 1187.23 1014.66
  L 1187.23 770.75
  A 0.77 0.76 -89.6 0 1 1188.00 769.98
  Q 1254.02 770.07 1298.11 769.98
  Q 1313.56 769.94 1322.37 770.86
  C 1349.06 773.62 1376.04 781.72 1395.71 800.58
  C 1409.60 813.89 1415.64 830.82 1409.90 849.66
  C 1400.94 879.04 1362.90 893.43 1335.57 898.65
  A 0.54 0.54 0.0 0 0 1335.24 899.51
  L 1422.73 1014.52
  Z"
/>
</svg>
